<?xml version="1.0" encoding="utf-8"?>
<!-- Generator: Adobe Illustrator 18.0.0, SVG Export Plug-In . SVG Version: 6.00 Build 0)  -->
<!DOCTYPE svg PUBLIC "-//W3C//DTD SVG 1.1//EN" "http://www.w3.org/Graphics/SVG/1.1/DTD/svg11.dtd">
<svg version="1.1" id="Capa_1" xmlns="http://www.w3.org/2000/svg" xmlns:xlink="http://www.w3.org/1999/xlink" x="0px" y="0px"
	 viewBox="0 0 459.7 371.7" enable-background="new 0 0 459.7 371.7" xml:space="preserve">
<g>
	<path d="M6.3,261.5L106.4,1h37.1l106.6,260.5h-39.3l-30.4-78.9H71.5l-28.6,78.9H6.3z M81.5,154.6h88.3l-27.2-72.1
		c-8.3-21.9-14.5-39.9-18.5-54c-3.3,16.7-8,33.3-14,49.8L81.5,154.6z"/>
</g>
<g id="Icono_1_-_Comprobar">
	<path d="M374.4,194.8L354.6,175l-89,89l19.8,19.8L374.4,194.8z M433.9,175L285.4,323.5L226.7,265l-19.8,19.8l78.4,78.4l168.4-168.4
		L433.9,175z M127.5,284.7l78.4,78.4l19.8-19.8L147.4,265L127.5,284.7z"/>
</g>
</svg>
